<?xml version="1.0" encoding="utf-8"?>
<!-- Generator: Adobe Illustrator 25.0.0, SVG Export Plug-In . SVG Version: 6.00 Build 0)  -->
<svg version="1.1" id="Layer_1" xmlns="http://www.w3.org/2000/svg" xmlns:xlink="http://www.w3.org/1999/xlink" x="0px" y="0px"
	 viewBox="0 0 40 40" style="enable-background:new 0 0 40 40;" xml:space="preserve">
<style type="text/css">
	.st0{fill:#000326;}
	.st1{fill:#FFFFFF;}
	.st2{fill:#0583F2;}
</style>
<path class="st0" d="M39.7,18.4L39.7,18.4c-0.2-0.1-0.4-0.3-0.6-0.4c-1.1-0.7-2.4-1.2-3.6-1.7l0,0c-1.1-0.4-2.3-0.7-3.5-0.9
	c-4.4-0.7-9,0.2-13.1,2.6c-5.2,3.2-8.5,8.4-9.3,14.1c-0.1,0.5-0.1,0.9-0.2,1.4c-0.1,1.1-0.1,2.2,0,3.3l0,0c0,0-0.1,0-0.1-0.1
	c0,0-0.1,0-0.1-0.1c-0.3-0.2-0.6-0.4-0.9-0.6c-0.2-0.1-0.4-0.3-0.6-0.5l-0.1-0.1c-0.3-0.2-0.5-0.4-0.8-0.6c-0.1-0.1-0.1-0.1-0.2-0.2
	c-0.1-0.1-0.1-0.1-0.2-0.2c-0.1-0.1-0.1-0.1-0.2-0.2C6.1,34.1,6,34,5.9,33.8l-0.1-0.1c-0.1-0.1-0.1-0.2-0.2-0.2s-0.1-0.2-0.2-0.2
	c-0.1-0.1-0.2-0.3-0.3-0.4c-0.1-0.1-0.2-0.2-0.3-0.3c-0.1-0.1-0.2-0.2-0.3-0.3l0,0l0,0c0-0.1-0.1-0.1-0.1-0.2c0,0,0,0,0-0.1
	c0,0,0,0,0-0.1l0,0c-0.4-0.5-0.8-1.1-1.2-1.7c-0.7-1.2-1.3-2.4-1.7-3.6l0,0C-1.8,17.9,1.6,7.9,9.8,2.9c5.8-3.5,12.6-3.7,18.3-1.1
	l0,0c0.2,0.1,0.5,0.2,0.7,0.3l0,0c0.3,0.1,0.5,0.3,0.8,0.4c1.8,1,3.5,2.4,4.9,4l0,0c0.9,0.9,1.6,2,2.3,3.2c0.5,0.8,0.9,1.6,1.2,2.4
	c0.1,0.3,0.3,0.7,0.4,1v0.1c0.2,0.4,0.3,0.9,0.4,1.3c0.2,0.6,0.3,1.3,0.4,1.9c0.1,0.3,0.1,0.7,0.2,1.1
	C39.7,17.8,39.7,18.1,39.7,18.4z"/>
<path class="st1" d="M39.1,14.5C39,14.5,39,14.5,39.1,14.5c-0.1-0.1-0.3-0.2-0.4-0.3c-1.2-1.1-2.6-2-4.1-2.8c-1-0.5-1.9-0.9-2.9-1.2
	C26.4,8.5,20.4,9,15.2,12.1C8,16.5,4.5,24.8,5.8,32.7c0.1,0.5,0.2,1.1,0.3,1.6l0,0c-0.1-0.1-0.2-0.2-0.3-0.4l-0.1-0.1
	c-0.1-0.1-0.1-0.2-0.2-0.2s-0.1-0.2-0.2-0.2C5.2,33.3,5.1,33.1,5,33c-0.1-0.1-0.2-0.2-0.3-0.3c-0.1-0.1-0.2-0.2-0.3-0.3l0,0
	c0-0.1-0.1-0.1-0.1-0.2C1.7,23.5,5.1,13.9,13.1,9c5.6-3.4,12.3-3.7,18-1.3C32,8,32.9,8.4,33.8,9c1.6,1,3.1,2.2,4.4,3.6l0,0
	c0.1,0.1,0.2,0.2,0.3,0.3l0,0c0.1,0.1,0.1,0.1,0.2,0.2l0.1,0.1C38.8,13.6,38.9,14.1,39.1,14.5z"/>
<path class="st1" d="M39.1,18c0,2.4-0.4,4.8-1.2,7.1c-3.3,9.2-12.5,14.5-21.7,13.1l0,0c-1.3-0.2-2.6-0.5-3.8-1
	c-0.2-0.1-0.5-0.2-0.7-0.3c0.3,0.1,0.6,0.1,0.9,0.2l0,0C21.8,38.5,31,33.2,34.3,24c0.9-2.5,1.3-5.2,1.2-7.7
	c-0.1-1.7-0.3-3.3-0.8-4.9c-0.2-0.8-0.5-1.6-0.9-2.4c-1.1-2.6-2.8-4.9-4.9-6.9c1.2,0.6,2.4,1.3,3.5,2.2c1,0.8,1.9,1.7,2.7,2.7
	c0.9,1.1,1.6,2.2,2.3,3.4l0,0c0.2,0.3,0.3,0.7,0.5,1c0.1,0.2,0.2,0.5,0.3,0.7c0.1,0.3,0.2,0.5,0.2,0.8c0.1,0.4,0.2,0.9,0.3,1.3
	C38.9,15.5,39.1,16.7,39.1,18z"/>
<path class="st2" d="M35.4,32.4c-5.1,6.5-13.4,9-20.8,6.9l0,0c-1.3-0.4-2.6-0.9-3.8-1.5c-0.5-0.3-1-0.6-1.5-0.9l0,0H9.2
	c0,0-0.1,0-0.1-0.1c-0.3-0.2-0.6-0.4-0.9-0.6c-0.2-0.1-0.4-0.3-0.6-0.5l-0.1-0.1C7.2,35.4,7,35.2,6.7,35c-0.1-0.1-0.1-0.1-0.2-0.2
	c-0.1-0.1-0.1-0.1-0.2-0.2l-0.1-0.1l-0.1-0.1c-0.1-0.1-0.2-0.2-0.3-0.3L5.7,34c-0.1-0.1-0.1-0.2-0.2-0.2c-0.2-0.2-0.4-0.4-0.6-0.6
	c-0.1-0.1-0.2-0.2-0.3-0.3c-0.1-0.1-0.2-0.2-0.3-0.3l0,0c0-0.1-0.1-0.1-0.1-0.2c0,0,0,0,0-0.1l0,0l0,0l0,0c0,0,0.1,0,0.1,0.1
	c0.5,0.2,1,0.4,1.5,0.6c0.8,0,1.5,0.2,2.2,0.3c0.4,0.1,0.9,0.2,1.3,0.2c1.1,0.2,2.2,0.2,3.4,0.2c5.6-0.2,11.2-2.8,15-7.6
	c2.5-3.2,3.9-6.9,4.3-10.7c0.1-1.8,0.1-3.5-0.2-5.3c0-0.2-0.1-0.3-0.1-0.5c-0.1-0.7-0.3-1.4-0.5-2.1c-0.3-0.8-0.6-1.6-0.9-2.4
	c-0.6-1.2-1.3-2.3-2.1-3.4c0.2,0.1,0.5,0.2,0.7,0.3l0,0c0.3,0.1,0.5,0.3,0.8,0.4c0.2,0.1,0.5,0.3,0.7,0.4c0.2,0.1,0.4,0.3,0.6,0.4
	c0,0,0.1,0,0.1,0.1c0.2,0.1,0.4,0.3,0.6,0.4c0.2,0.2,0.4,0.3,0.7,0.5c1,0.8,1.9,1.7,2.7,2.7c0.9,1.1,1.6,2.2,2.3,3.4l0,0
	c0.2,0.3,0.3,0.7,0.5,1c0.3,0.6,0.5,1.2,0.7,1.8c0.2,0.4,0.3,0.9,0.4,1.3c0.2,0.6,0.3,1.2,0.4,1.9c0.1,0.3,0.1,0.7,0.2,1.1
	c0,0.3,0.1,0.6,0.1,0.9C40.1,23.2,38.7,28.3,35.4,32.4z"/>
<path class="st0" d="M6.6,33L6.6,33z"/>
</svg>
