<?xml version="1.0" encoding="utf-8"?>
<!-- Generator: Adobe Illustrator 25.0.0, SVG Export Plug-In . SVG Version: 6.00 Build 0)  -->
<svg version="1.1" id="Layer_1" xmlns="http://www.w3.org/2000/svg" xmlns:xlink="http://www.w3.org/1999/xlink" x="0px" y="0px"
	 viewBox="0 0 40 40" style="enable-background:new 0 0 40 40;" xml:space="preserve">
<style type="text/css">
	.st0{fill:url(#SVGID_1_);}
</style>
<g>
	<linearGradient id="SVGID_1_" gradientUnits="userSpaceOnUse" x1="1.0063" y1="19.9954" x2="40.0693" y2="19.9954">
		<stop  offset="0" style="stop-color:#101828"/>
		<stop  offset="0.1872" style="stop-color:#4045F0"/>
		<stop  offset="0.433" style="stop-color:#4045F0"/>
		<stop  offset="0.6369" style="stop-color:#4247F8"/>
		<stop  offset="1" style="stop-color:#101828"/>
	</linearGradient>
	<path class="st0" d="M4.3,39.8c-1.2,0-2.3-0.3-2.3-1c-0.6-4.6-1-9.3-1-13.9c0-6.4,0.6-12.6,2-18.5c0.1-0.5,1.4-1,2.9-1
		c1.2,0,2.8,0.2,2.8,1.1v0.3C8,9.2,7.4,14.7,7.2,18.2c2.4-8.4,7-18,13.8-18h1.3c2.7,0,5,0.2,6.6,2c1.8,2,2.6,4.7,2.6,7.7
		c0,3.9-1.4,8.1-3.5,11.3c4.2-0.2,8.6-0.4,11.2-1.2l0.2-0.1c0.3,0,0.6,0.2,0.6,0.4c0,0.2-0.1,0.3-0.3,0.4c-3,0.9-7.7,1.1-12.3,1.3
		c-1.5,1.9-3.4,3.6-5.7,4.7c-1.8,0.8-4.9,0.9-5.9,0.9c-2.4,0-3.7-1-3.7-2.2c0-1,0.9-2.1,3.1-2.9c1.6-0.6,4-0.9,6.7-1
		c1.9-3.6,3.2-8.8,3.2-13.1c0-3.4-0.8-7.4-4.2-7.4C13.7,1,8.9,15.4,6.8,23.7l-0.1,5.6c0,3.1,0.1,6.1,0.4,9.2c0,0.7-1.3,1.2-2.6,1.3
		H4.3z M19.5,24.6c0.7-0.6,1.4-1.4,1.9-2.4c-1.8,0.2-4,0.4-5.6,0.9c-1.5,0.5-2.6,1.3-2.6,2.2c0,0.8,0.9,1.3,2.4,1.4
		C17,26.6,18.6,25.4,19.5,24.6z"/>
</g>
</svg>
